<?xml version="1.0" standalone="no"?>
<!DOCTYPE svg PUBLIC "-//W3C//DTD SVG 20010904//EN"
 "http://www.w3.org/TR/2001/REC-SVG-20010904/DTD/svg10.dtd">
<svg version="1.0" xmlns="http://www.w3.org/2000/svg"
 width="301.000000pt" height="301.000000pt" viewBox="0 0 301.000000 301.000000"
 preserveAspectRatio="xMidYMid meet">
<metadata>
Created by potrace 1.11, written by Peter Selinger 2001-2013
</metadata>
<g transform="translate(0.000000,301.000000) scale(0.100000,-0.100000)"
fill="#000000" stroke="none">
<path d="M1437 3004 c-1 -1 -35 -4 -74 -8 -340 -29 -673 -185 -917 -429 -356
-358 -504 -843 -410 -1351 34 -185 133 -413 251 -578 56 -79 202 -234 273
-292 454 -365 1080 -434 1602 -175 569 281 892 874 824 1514 -4 33 -9 67 -11
75 -2 8 -6 26 -9 40 -27 149 -93 323 -175 462 -184 312 -477 550 -811 662 -92
30 -133 41 -239 61 -56 11 -295 25 -304 19z"/>
</g>
</svg>
